#pragma once

#define NDUR 200
const uint16_t allNotes[] PROGMEM = {
  NOTE_G5,NDUR,NOTE_AS5,NDUR,NOTE_D5,NDUR,NOTE_DS5,NDUR,
  NOTE_G5,NDUR,NOTE_AS5,NDUR,NOTE_D5,NDUR,NOTE_DS5,NDUR,
  NOTE_G5,NDUR,NOTE_AS5,NDUR,NOTE_D5,NDUR,NOTE_DS5,NDUR,
  NOTE_G5,NDUR,NOTE_AS5,NDUR,NOTE_D5,NDUR,NOTE_DS5,NDUR,
  NOTE_F5,NDUR,NOTE_GS5,NDUR,NOTE_C5,NDUR,NOTE_CS5,NDUR,
  NOTE_F5,NDUR,NOTE_GS5,NDUR,NOTE_C5,NDUR,NOTE_CS5,NDUR,
  NOTE_F5,NDUR,NOTE_GS5,NDUR,NOTE_C5,NDUR,NOTE_CS5,NDUR,
  NOTE_F5,NDUR,NOTE_GS5,NDUR,NOTE_C5,NDUR,NOTE_CS5,NDUR,
  NOTE_C6,NDUR,NOTE_AS5,NDUR,NOTE_DS5,NDUR,NOTE_F5,NDUR,NOTE_GS5,NDUR,NOTE_G5,NDUR,NOTE_DS5,NDUR,NOTE_C5,NDUR,
  NOTE_C6,NDUR,NOTE_AS5,NDUR,NOTE_DS5,NDUR,NOTE_F5,NDUR,NOTE_GS5,NDUR,NOTE_G5,NDUR,NOTE_DS5,NDUR,NOTE_C5,NDUR,
  NOTE_C6,NDUR,NOTE_AS5,NDUR,NOTE_DS5,NDUR,NOTE_F5,NDUR,NOTE_GS5,NDUR,NOTE_G5,NDUR,NOTE_DS5,NDUR,NOTE_C5,NDUR,
  NOTE_GS5,NDUR,NOTE_G5,NDUR,NOTE_C5,NDUR,NOTE_DS5,NDUR,NOTE_GS5,NDUR,NOTE_G5,NDUR,NOTE_AS5,NDUR,NOTE_F5,NDUR,
  NOTE_GS5,NDUR,NOTE_G5,NDUR,NOTE_C5,NDUR,NOTE_DS5,NDUR,NOTE_GS5,NDUR,NOTE_G5,NDUR,NOTE_AS5,NDUR,NOTE_F5,NDUR,
  NOTE_GS5,NDUR,NOTE_G5,NDUR,NOTE_C5,NDUR,NOTE_DS5,NDUR,NOTE_GS5,NDUR,NOTE_G5,NDUR,NOTE_AS5,NDUR,NOTE_F5,NDUR,
  TONES_REPEAT
};
